<?xml version="1.0"?>
<svg xmlns="http://www.w3.org/2000/svg" xmlns:xlink="http://www.w3.org/1999/xlink" version="1.1" viewBox="0 0 252 252" width="64px" height="64px"><g fill="none" fill-rule="nonzero" stroke="none" stroke-width="1" stroke-linecap="butt" stroke-linejoin="miter" stroke-miterlimit="10" stroke-dasharray="" stroke-dashoffset="0" font-family="none" font-weight="none" font-size="none" text-anchor="none" style="mix-blend-mode: normal"><path d="M0,252v-252h252v252z" fill="none"/><g id="Layer_1"><g><g fill="#d51b23"><g><g><g><g><g><path d="M3.88828,126c0,-67.42969 54.68203,-122.11172 122.11172,-122.11172c67.42969,0 122.11172,54.68203 122.11172,122.11172c0,67.42969 -54.68203,122.11172 -122.11172,122.11172c-67.42969,0 -122.11172,-54.68203 -122.11172,-122.11172z"/></g></g></g></g></g></g><g><g fill="#ffffff"><g><g><g><g><g><g><path d="M41.29453,126c0,-46.75781 37.89844,-84.70547 84.70547,-84.70547c46.75781,0 84.70547,37.89844 84.70547,84.70547c0,46.75781 -37.89844,84.70547 -84.70547,84.70547c-46.75781,0 -84.70547,-37.94766 -84.70547,-84.70547z"/></g></g></g></g></g></g></g><g fill="#d51b23"><g><g><g><g><g><g><path d="M50.64609,126c0,-41.63906 33.76406,-75.35391 75.35391,-75.35391c41.63906,0 75.35391,33.71484 75.35391,75.35391c0,41.63906 -33.76406,75.35391 -75.35391,75.35391c-41.63906,0 -75.35391,-33.71484 -75.35391,-75.35391z"/></g></g></g></g></g></g></g><g fill="#ffffff"><g><g><g><g><g><g><g><path d="M126,137.61563c-6.39844,0 -11.61562,-5.21719 -11.61562,-11.61563c0,-6.39844 5.21719,-11.61562 11.61562,-11.61562c6.39844,0 11.61563,5.21719 11.61563,11.61562c0,6.39844 -5.21719,11.61563 -11.61563,11.61563z"/></g></g></g></g></g></g></g><g><path d="M126,129.78984h-43.41094c-2.06719,0 -3.78984,-1.67344 -3.78984,-3.78984c0,-2.11641 1.67344,-3.78984 3.78984,-3.78984h43.41094c2.06719,0 3.78984,1.67344 3.78984,3.78984c0,2.11641 -1.72266,3.78984 -3.78984,3.78984z"/></g><g><path d="M126,129.78984c-0.98437,0 -1.91953,-0.39375 -2.65781,-1.13203c-1.47656,-1.47656 -1.47656,-3.88828 0,-5.36484l30.7125,-30.7125c1.47656,-1.47656 3.88828,-1.47656 5.36484,0c1.47656,1.47656 1.47656,3.88828 0,5.36484l-30.7125,30.7125c-0.7875,0.73828 -1.72266,1.13203 -2.70703,1.13203z"/></g></g><g fill="#ffffff"><g><g><circle cx="256" cy="128" transform="scale(0.49219,0.49219)" r="10"/></g><g><circle cx="256" cy="384" transform="scale(0.49219,0.49219)" r="10"/></g></g><g><g><circle cx="384" cy="256" transform="scale(0.49219,0.49219)" r="10"/></g><g><circle cx="128" cy="256" transform="scale(0.49219,0.49219)" r="10"/></g></g></g><g fill="#ffffff"><g><g><circle cx="346.5" cy="165.5" transform="scale(0.49219,0.49219)" r="10"/></g><g><circle cx="165.5" cy="346.5" transform="scale(0.49219,0.49219)" r="10"/></g></g><g><g><circle cx="346.5" cy="346.5" transform="scale(0.49219,0.49219)" r="10"/></g><g><circle cx="165.5" cy="165.5" transform="scale(0.49219,0.49219)" r="10"/></g></g></g></g></g></g></g></svg>
