<?xml version="1.0"?>
<svg xmlns="http://www.w3.org/2000/svg" xmlns:xlink="http://www.w3.org/1999/xlink" version="1.1" viewBox="0 0 252 252" width="48px" height="48px"><g fill="none" fill-rule="nonzero" stroke="none" stroke-width="1" stroke-linecap="butt" stroke-linejoin="miter" stroke-miterlimit="10" stroke-dasharray="" stroke-dashoffset="0" font-family="none" font-weight="none" font-size="none" text-anchor="none" style="mix-blend-mode: normal"><path d="M0,252v-252h252v252z" fill="none"/><g id="Layer_1"><g><g fill="#ffffff"><g><path d="M191.41172,183.33984c-0.39375,-0.14766 -0.7875,-0.34453 -1.13203,-0.63984c-5.75859,-4.62656 -9.94219,-10.92656 -14.175,-16.88203c-4.38047,-6.20156 -9.40078,-11.86172 -14.175,-17.76797c-2.55937,-3.15 -5.02031,-6.34922 -7.48125,-9.59766c-1.575,-2.85469 -3.24844,-5.66016 -4.97109,-8.46562c0.98438,-1.67344 1.91953,-3.34688 2.80547,-5.06953c0,0.04922 0.04922,0.04922 0.04922,0.09844c4.87266,-6.74297 9.84375,-13.43672 15.06094,-19.93359c9.25312,-11.56641 18.75234,-22.88672 27.80859,-34.55156c-9.25313,-12.05859 -18.06328,-24.4125 -25.54453,-37.60313c-2.11641,4.38047 -3.98672,8.85938 -5.75859,13.3875c-3.05156,7.77656 -6.3,15.45469 -10.08984,22.93594c-5.36484,10.63125 -11.12344,21.16406 -17.27578,31.40156l0.19688,0.34453c-0.44297,0.59063 -0.88594,1.18125 -1.32891,1.77188c-0.93516,0.98438 -1.87031,1.91953 -2.75625,2.85469c-1.27969,-1.96875 -2.55937,-3.98672 -3.88828,-5.95547c-0.19688,-0.29531 -0.34453,-0.54141 -0.54141,-0.83672c-7.875,-13.19063 -15.40547,-26.62734 -22.49297,-40.26094c-2.70703,-5.21719 -5.80781,-10.2375 -8.71172,-15.40547c-2.41172,-4.28203 -5.26641,-8.90859 -6.44766,-13.73203c-9.84375,5.31563 -19.53984,11.32031 -27.31641,19.39219c1.47656,0.7875 2.85469,1.72266 4.13438,2.80547c4.82344,4.03594 8.61328,9.20391 12.45234,14.175c4.28203,5.56172 8.81016,10.87734 13.14141,16.34063c8.90859,11.32031 17.37422,22.93594 26.18437,34.35469c0.04922,-0.04922 0.09844,-0.14766 0.14766,-0.19687c1.18125,1.77187 2.3625,3.54375 3.74062,5.11875c-0.34453,0.63984 -0.68906,1.32891 -1.03359,1.96875c-0.83672,1.23047 -1.62422,2.46094 -2.41172,3.69141c-0.04922,-0.04922 -0.09844,-0.09844 -0.14766,-0.19687c-7.18594,10.13906 -14.86406,19.88437 -23.13281,29.1375c-8.41641,9.49922 -17.42344,20.42578 -28.64531,26.92266c0.29531,0.63984 0.34453,1.37813 0.14766,2.01797c4.42969,4.52812 10.38516,7.48125 14.56875,12.30469c3.88828,4.42969 7.33359,9.25313 11.32031,13.58437c4.08516,-10.97578 10.77891,-20.96719 17.71875,-30.36797c6.93984,-9.40078 14.12578,-18.65391 21.06562,-28.05469c1.23047,-1.42734 2.3625,-2.95312 3.49453,-4.47891c1.27969,-1.42734 2.60859,-2.80547 3.74062,-4.28203c2.01797,2.16563 3.88828,4.42969 6.10313,6.39844c4.77422,6.20156 9.35156,12.50156 13.58437,19.04766c8.76094,13.58437 14.86406,28.54688 22.78828,42.62344c4.67578,-8.02266 9.99141,-15.99609 12.50156,-24.90469c-0.88594,-0.59063 -1.72266,-1.37813 -2.65781,-2.26406c-0.24609,-0.39375 -0.49219,-0.7875 -0.63984,-1.23047z"/></g></g><g fill="#666666"><g><path d="M191.70703,175.6125h-0.04922c-3.9375,-3.88828 -7.0875,-8.51484 -10.28672,-13.04297c-4.38047,-6.25078 -9.35156,-11.86172 -14.175,-17.76797c-3.83906,-4.725 -7.53047,-9.54844 -11.07422,-14.47031c5.11875,-7.0875 10.28672,-14.175 15.75,-21.01641c9.79453,-12.25547 19.88438,-24.26484 29.48203,-36.66797c0.7875,-1.03359 1.27969,-2.60859 0.39375,-3.74062c-10.43437,-13.53516 -20.42578,-27.46406 -28.59609,-42.47578c0.04922,-0.09844 0.09844,-0.19688 0.14766,-0.24609c-0.7875,-1.32891 -1.47656,-2.75625 -2.11641,-4.18359c-0.34453,-0.59063 -0.63984,-1.13203 -0.98437,-1.72266c-0.04922,0.04922 -0.14766,0.04922 -0.19688,0.09844c-0.73828,0.39375 -1.37812,0.7875 -2.01797,1.18125c-0.14766,0.04922 -0.24609,0.09844 -0.39375,0.14766c-0.59062,2.06719 -1.42734,4.13437 -2.51016,5.95547c0.04922,0.09844 0.09844,0.14766 0.14766,0.24609c-6.10312,11.71406 -9.99141,24.60938 -15.84844,36.47109c-5.06953,10.2375 -10.58203,20.32734 -16.43906,30.22031c-7.28438,-12.25547 -14.22422,-24.65859 -20.81953,-37.25859c-1.37813,-2.65781 -2.85469,-5.26641 -4.33125,-7.92422c-2.41172,-3.34688 -4.52812,-6.89062 -6.10313,-10.68047c-1.37812,-2.3625 -2.75625,-4.82344 -3.83906,-7.33359c-1.82109,-3.10078 -3.34688,-6.3 -4.92187,-9.49922c-0.59063,-0.04922 -1.18125,0.04922 -1.82109,0.34453c-11.8125,6.15234 -23.52656,13.14141 -32.73047,22.88672c-0.59062,0.63984 -0.83672,1.37812 -0.83672,2.06719c2.41172,3.24844 4.725,6.59531 6.93984,9.94219c2.80547,2.46094 5.16797,5.5125 7.38281,8.31797c3.9375,4.97109 8.02266,9.89297 11.91094,14.86406c5.56172,7.0875 11.17266,14.175 16.68516,21.31172c5.11875,6.69375 9.99141,13.58437 15.15938,20.22891c-6.89062,9.84375 -14.37188,19.34297 -22.29609,28.39922c-4.77422,5.46328 -9.74531,10.87734 -14.86406,16.04531c-4.38047,4.42969 -9.10547,8.61328 -14.51953,11.71406c-0.09844,0.04922 -0.24609,0.09844 -0.34453,0.14766l-3.00234,1.575c-2.01797,1.03359 -1.87031,3.10078 -0.68906,4.42969c0.04922,0.49219 0.19687,0.98438 0.44297,1.37813c4.38047,6.25078 11.17266,9.84375 16.63594,14.9625c5.90625,5.61094 10.04063,12.84609 16.09453,18.40781c1.77187,1.62422 4.47891,0.73828 5.11875,-1.52578c3.59297,-12.50156 11.22188,-23.72344 18.94922,-34.05937c7.62891,-10.2375 15.40547,-20.37656 22.98516,-30.66328c3.64219,4.67578 7.13672,9.45 10.53281,14.32266c5.16797,7.48125 9.84375,15.30703 13.92891,23.42812c4.03594,7.92422 7.72734,16.04531 12.05859,23.82188c0.98438,1.82109 2.06719,3.64219 3.15,5.41406c1.18125,1.96875 4.28203,1.91953 5.36484,-0.14766c5.75859,-10.87734 13.63359,-21.31172 16.34062,-33.51797c-1.37812,-1.18125 -2.65781,-2.3625 -3.83906,-3.54375c-2.01797,-1.96875 -4.33125,-4.28203 -5.95547,-6.84141zM182.35547,211.73906c-7.92422,-14.02734 -14.02734,-29.03906 -22.78828,-42.62344c-4.23281,-6.54609 -8.81016,-12.84609 -13.58437,-19.04766c-2.21484,-1.96875 -4.08516,-4.23281 -6.10313,-6.39844c-1.18125,1.47656 -2.46094,2.90391 -3.74062,4.28203c-1.08281,1.52578 -2.26406,3.05156 -3.49453,4.47891c-6.98906,9.40078 -14.12578,18.60469 -21.06563,28.05469c-6.93984,9.35156 -13.63359,19.34297 -17.71875,30.36797c-3.98672,-4.33125 -7.48125,-9.15469 -11.32031,-13.58437c-4.18359,-4.82344 -10.13906,-7.77656 -14.56875,-12.30469c0.24609,-0.63984 0.14766,-1.37813 -0.14766,-2.01797c11.27109,-6.44766 20.22891,-17.42344 28.64531,-26.92266c8.21953,-9.25313 15.94688,-18.99844 23.13281,-29.1375c0.04922,0.04922 0.09844,0.09844 0.14766,0.19687c0.7875,-1.23047 1.575,-2.46094 2.41172,-3.69141c0.34453,-0.63984 0.68906,-1.32891 1.03359,-1.96875c-1.37813,-1.575 -2.55938,-3.34687 -3.74063,-5.11875c-0.04922,0.04922 -0.09844,0.14766 -0.14766,0.19687c-8.81016,-11.36953 -17.27578,-23.03437 -26.18438,-34.35469c-4.33125,-5.5125 -8.85937,-10.82812 -13.14141,-16.34063c-3.83906,-4.97109 -7.62891,-10.08984 -12.45234,-14.175c-1.27969,-1.08281 -2.65781,-2.01797 -4.13437,-2.80547c7.77656,-8.07188 17.47266,-14.07656 27.31641,-19.39219c1.18125,4.82344 4.03594,9.45 6.44766,13.73203c2.90391,5.11875 5.95547,10.18828 8.71172,15.40547c7.0875,13.63359 14.61797,27.07031 22.49297,40.26094c0.19687,0.29531 0.39375,0.54141 0.54141,0.83672c1.32891,1.96875 2.60859,3.9375 3.88828,5.95547c0.88594,-0.98437 1.82109,-1.91953 2.75625,-2.85469c0.44297,-0.59063 0.88594,-1.18125 1.32891,-1.77188l-0.19688,-0.34453c6.15234,-10.28672 11.91094,-20.77031 17.27578,-31.40156c3.78984,-7.48125 6.98906,-15.15937 10.08984,-22.93594c1.77187,-4.52812 3.64219,-9.00703 5.75859,-13.3875c7.48125,13.19062 16.34062,25.54453 25.54453,37.60313c-9.10547,11.66484 -18.55547,23.03437 -27.80859,34.55156c-5.21719,6.54609 -10.18828,13.19063 -15.06094,19.93359c0,-0.04922 -0.04922,-0.04922 -0.04922,-0.09844c-0.83672,1.72266 -1.77187,3.39609 -2.80547,5.06953c1.77188,2.75625 3.39609,5.56172 4.97109,8.46562c2.41172,3.24844 4.92188,6.44766 7.48125,9.59766c4.77422,5.90625 9.79453,11.51719 14.175,17.76797c4.23281,5.95547 8.41641,12.25547 14.175,16.88203c0.34453,0.29531 0.73828,0.49219 1.13203,0.63984c0.14766,0.44297 0.39375,0.83672 0.7875,1.23047c0.88594,0.88594 1.72266,1.67344 2.65781,2.26406c-2.70703,8.90859 -8.02266,16.88203 -12.64922,24.90469z"/></g></g></g></g></g></svg>
