<?xml version="1.0"?>
<svg xmlns="http://www.w3.org/2000/svg" xmlns:xlink="http://www.w3.org/1999/xlink" version="1.1" viewBox="0 0 252 252" width="64px" height="64px"><g fill="none" fill-rule="nonzero" stroke="none" stroke-width="1" stroke-linecap="butt" stroke-linejoin="miter" stroke-miterlimit="10" stroke-dasharray="" stroke-dashoffset="0" font-family="none" font-weight="none" font-size="none" text-anchor="none" style="mix-blend-mode: normal"><path d="M0,252v-252h252v252z" fill="none"/><g id="Layer_1"><g><g fill="#ffffff"><g><g><g><g><g><g><path d="M248.11172,126c0,-67.42969 -54.68203,-122.11172 -122.11172,-122.11172c-67.42969,0 -122.11172,54.68203 -122.11172,122.11172c0,67.42969 54.68203,122.11172 122.11172,122.11172c67.42969,0 122.11172,-54.68203 122.11172,-122.11172z"/></g></g></g></g></g></g></g><g fill="#d51b23"><path d="M140.27344,126l35.68359,-41.44219c3.88828,-4.52813 3.39609,-11.32031 -1.13203,-15.25781c-4.52812,-3.88828 -11.32031,-3.39609 -15.20859,1.13203l-33.61641,39.03047l-33.56719,-38.98125c-3.88828,-4.52812 -10.72969,-5.02031 -15.25781,-1.13203c-4.52813,3.88828 -5.02031,10.72969 -1.13203,15.25781l35.68359,41.39297l-35.68359,41.44219c-3.88828,4.52812 -3.39609,11.32031 1.13203,15.25781c2.01797,1.77188 4.52812,2.60859 7.03828,2.60859c3.05156,0 6.05391,-1.27969 8.17031,-3.74063l33.56719,-38.98125l33.56719,38.98125c2.11641,2.46094 5.16797,3.74063 8.17031,3.74063c2.51016,0 5.02031,-0.83672 7.03828,-2.60859c4.52812,-3.88828 5.02031,-10.72969 1.13203,-15.25781z"/></g></g></g></g></svg>
